<svg width="60" height="80" viewBox="0 0 60 80" fill="none" xmlns="http://www.w3.org/2000/svg">
<path d="M45.177 49.1817H40.4816L37.2475 45.982V44.3395C41.2244 42.0745 44.0998 38.0906 44.8566 33.4061H46.4716C48.5452 33.4061 50.2319 31.7192 50.2319 29.6458V23.1742C50.2319 21.1006 48.545 19.4139 46.4716 19.4139H45.0547V11.5261C45.0547 8.02531 42.2066 5.17719 38.7058 5.17719H31.7016C30.673 2.16937 27.8205 0 24.4689 0C20.7019 0 17.5648 2.74 16.9406 6.33125C15.2616 7.51281 14.2372 9.45422 14.2372 11.5259V19.4138H12.8206C10.747 19.4138 9.06031 21.1006 9.06031 23.1741V29.6456C9.06031 31.7191 10.7472 33.4059 12.8206 33.4059H14.4355C15.1922 38.0905 18.0678 42.0744 22.0447 44.3394V45.982L18.8106 49.1816H14.1148C6.33203 49.1816 0 55.5134 0 63.2964V78.8281C0 79.4755 0.524687 80 1.17188 80H10.552C11.1992 80 11.7239 79.4755 11.7239 78.8281C11.7239 78.1808 11.1992 77.6562 10.552 77.6562H2.34375V63.2966C2.34375 56.8059 7.62422 51.5255 14.1148 51.5255H17.5611L13.0267 62.8617C12.8209 63.3763 13.0036 63.9647 13.4647 64.2719L28.4741 74.2784V77.6562H15.2395C14.5923 77.6562 14.0677 78.1808 14.0677 78.8281C14.0677 79.4755 14.5923 80 15.2395 80H58.1198C58.767 80 59.2917 79.4755 59.2917 78.8281V63.2966C59.2919 55.5136 52.96 49.1817 45.177 49.1817ZM45.0547 30.9402V21.7573H46.4716V21.7575C47.2527 21.7575 47.8881 22.393 47.8881 23.1741V29.6456C47.8881 30.4267 47.2527 31.0622 46.4716 31.0622H45.0531C45.0534 31.0214 45.0547 30.9809 45.0547 30.9402ZM12.8205 31.0625C12.0394 31.0623 11.4039 30.4269 11.4039 29.6458V23.1742C11.4039 22.3931 12.0394 21.7577 12.8205 21.7577H14.237V30.9405C14.237 30.9812 14.2383 31.0219 14.2386 31.0625H12.8205ZM43.7336 62.8498L33.3519 69.7527L38.4164 61.3111C38.4192 61.3064 38.4214 61.3014 38.4241 61.2967C38.433 61.2814 38.4408 61.2656 38.4491 61.25C38.4633 61.2228 38.4766 61.1953 38.4884 61.1675C38.4948 61.1525 38.5013 61.1375 38.507 61.1222C38.5214 61.0841 38.5339 61.0456 38.5442 61.0069C38.5455 61.002 38.5477 60.9975 38.5489 60.9925L40.2464 54.2017L43.7336 62.8498ZM29.6459 54.5997L33.1659 58.1197L30.4547 60.8306H28.8369L26.1259 58.1197L27.4822 56.7634L29.6459 54.5997ZM28.1147 49.7389L24.3881 45.9881V45.4248C26.0295 46.0225 27.8002 46.3491 29.6458 46.3491C31.4914 46.3491 33.262 46.0225 34.9034 45.4248V45.9881L29.6458 51.2798L28.1147 49.7389ZM34.8233 59.777L35.9359 60.8897L33.0111 65.7647L32.2281 62.3719L34.8233 59.777ZM38.7011 50.7173L36.7767 58.4159L35.6533 57.2925C35.6528 57.292 35.6523 57.2914 35.6519 57.2909L31.3006 52.9397L36.0827 48.1269L38.7011 50.7173ZM24.4689 2.34375C27.3911 2.34375 29.7684 4.72109 29.7684 7.64313C29.7684 8.29047 30.2931 8.815 30.9403 8.815C31.5875 8.815 32.1122 8.29047 32.1122 7.64313C32.1122 7.60203 32.1097 7.56172 32.1091 7.52078H38.7059C40.9144 7.52078 42.7111 9.3175 42.7111 11.5259V19.2816C40.7286 18.832 39.1653 17.2689 38.7158 15.2864H40.0003C40.6475 15.2864 41.1722 14.7619 41.1722 14.1145C41.1722 13.4672 40.6475 12.9427 40.0003 12.9427H37.4177C37.4156 12.9427 37.4136 12.9423 37.4116 12.9423C37.4095 12.9423 37.4075 12.9427 37.4055 12.9427H24.4689C21.5467 12.9427 19.1694 10.5653 19.1694 7.64313C19.1694 4.72109 21.5466 2.34375 24.4689 2.34375ZM16.5808 11.5259C16.5808 10.8416 16.7594 10.1803 17.0798 9.59766C17.6109 11.6036 18.9394 13.2875 20.7039 14.2908C20.6234 16.7317 18.8852 18.7591 16.5808 19.2816V11.5259V11.5259ZM16.5808 30.9403V21.6677C19.8653 21.16 22.4659 18.5539 22.9652 15.2669C23.0333 15.2792 23.103 15.2866 23.1745 15.2866H36.3295C36.8363 18.5645 39.433 21.1612 42.7109 21.6678V30.9405C42.7109 38.1445 36.85 44.0055 29.6459 44.0055C22.4417 44.0053 16.5808 38.1444 16.5808 30.9403ZM23.2091 48.1267L25.7331 50.6672L27.9911 52.9398L23.6397 57.2911C23.6392 57.2916 23.6388 57.2922 23.6383 57.2927L22.5148 58.4161L20.5905 50.7173L23.2091 48.1267ZM15.5558 62.8492L19.0338 54.1542L20.74 60.9803C20.7409 60.9839 20.7419 60.9875 20.7427 60.9911L20.743 60.9923C20.7431 60.9931 20.7434 60.9937 20.7437 60.9945C20.7548 61.0387 20.7694 61.0825 20.7861 61.1258C20.7908 61.1381 20.7961 61.1503 20.8011 61.1625C20.8144 61.1941 20.8294 61.2252 20.8456 61.2559C20.8523 61.2686 20.8586 61.2814 20.8658 61.2937C20.8691 61.2995 20.8716 61.3055 20.875 61.3111L25.7638 69.4591C25.7641 69.4595 25.7642 69.46 25.7645 69.4605L25.9595 69.7853L15.5558 62.8492ZM26.2805 65.7647L23.3556 60.8898L24.4684 59.7769L27.0634 62.3717L26.2805 65.7647ZM28.0178 68.66L29.2838 63.1742H30.0078L31.2736 68.66L29.6458 71.3733L28.0178 68.66ZM56.9481 77.6562H30.8178V74.2514L45.8259 64.2725C46.2888 63.9647 46.4717 63.3741 46.2639 62.8584L41.6941 51.5253H45.1769C51.6675 51.5253 56.948 56.8058 56.948 63.2964V77.6562H56.9481Z" fill="#6366F1"/>
</svg>
