<svg width="57" height="80" viewBox="0 0 57 80" fill="none" xmlns="http://www.w3.org/2000/svg">
<path d="M52.8402 52.8402V44.512L49.3257 45.8794L49.3153 45.8562L49.2316 45.7042C47.8848 43.6073 45.7067 42.1484 43.2542 41.7038L34.7972 40.165V39.4974C37.9599 37.6609 40.2758 34.5278 40.9975 30.8239C43.3405 30.3393 45.1075 28.2605 45.1075 25.7757V13.0464C45.1075 9.44937 42.7516 6.31247 39.3337 5.29175L38.6893 4.64736C35.6916 1.64964 31.7067 0 27.4679 0C18.7183 0 11.5991 7.11796 11.5991 15.8688V25.7757C11.5991 28.2605 13.366 30.3393 15.709 30.8239C16.432 34.5278 18.7467 37.6621 21.9093 39.4974V40.165L13.4536 41.7025C11.0036 42.1471 8.82689 43.6034 7.47882 45.699L7.40149 45.8872L3.86635 44.512V52.8402C1.7347 52.8402 0 54.5749 0 56.7065V61.8617C0 63.9933 1.7347 65.728 3.86635 65.728V70.4759L28.3533 80L52.8402 70.4759V65.728C54.9718 65.728 56.7065 63.9933 56.7065 61.8617V56.7065C56.7065 54.5749 54.9718 52.8402 52.8402 52.8402ZM37.2124 43.2245L42.7928 44.2388C44.436 44.5378 45.891 45.4864 46.8615 46.837L34.3925 51.6854L37.2124 43.2245ZM24.5965 40.6792C25.786 41.0426 27.0464 41.2411 28.3533 41.2411C29.6601 41.2411 30.9205 41.0426 32.1101 40.6792L28.3533 43.4965L24.5965 40.6792ZM26.3917 45.2466L23.7613 47.8758L22.055 42.758L22.8759 42.6098L26.3917 45.2466ZM33.8306 42.6111L34.6516 42.7593L32.9452 47.877L30.3148 45.2479L33.8306 42.6111ZM41.2411 27.995V23.5564C42.0079 24.0036 42.5299 24.8259 42.5299 25.7757C42.5299 26.7255 42.0079 27.5478 41.2411 27.995ZM15.4654 27.995C14.6986 27.5478 14.1766 26.7255 14.1766 25.7757C14.1766 24.8259 14.6986 24.0036 15.4654 23.5564V27.995ZM15.4654 19.3318V20.8036C15.0066 20.9234 14.5762 21.1038 14.1766 21.3371V15.8688C14.1766 8.54077 20.1385 2.57757 27.4679 2.57757C31.0172 2.57757 34.3564 3.96043 36.867 6.47099L38.0037 7.60898L38.3504 7.69404C40.8119 8.30879 42.5299 10.51 42.5299 13.0464V21.3371C42.1304 21.1038 41.6999 20.9221 41.2411 20.8036V19.3318H37.1544C33.6618 19.3318 30.3238 17.6641 28.2295 14.8713L27.205 13.5026L24.6441 16.0647C22.5357 18.1719 19.7339 19.3318 16.7542 19.3318H15.4654ZM18.043 28.3533V21.8501C21.225 21.5549 24.1776 20.1746 26.4665 17.887L26.9678 17.3857C29.5518 20.2378 33.2738 21.9093 37.1544 21.9093H38.6635V28.3533C38.6635 34.0381 34.0381 38.6635 28.3533 38.6635C22.6684 38.6635 18.043 34.0381 18.043 28.3533ZM13.9137 44.2388L19.4942 43.2245L22.314 51.6854L9.84245 46.8357C10.8129 45.4838 12.2705 44.5378 13.9137 44.2388ZM2.57757 61.8617V56.7065C2.57757 55.9951 3.15623 55.4177 3.86635 55.4177C5.998 55.4177 7.73271 57.1524 7.73271 59.2841C7.73271 61.4157 5.998 63.1504 3.86635 63.1504C3.15623 63.1504 2.57757 62.5731 2.57757 61.8617ZM27.0645 76.7316L6.44392 68.7141V65.1816C8.71605 64.184 10.3103 61.9196 10.3103 59.2841C10.3103 56.6485 8.71605 54.3841 6.44392 53.3866V48.2804L27.0645 56.2993V76.7316ZM23.2381 52.0463L28.3533 46.9298L33.4684 52.045L28.3533 54.0349L23.2381 52.0463ZM50.2626 68.7128L29.642 76.7304V56.2993L50.2626 48.2804V53.3866C47.9905 54.3841 46.3962 56.6485 46.3962 59.2841C46.3962 61.9196 47.9905 64.184 50.2626 65.1816V68.7128ZM54.1289 61.8617C54.1289 62.5731 53.5503 63.1504 52.8402 63.1504C50.7085 63.1504 48.9738 61.4157 48.9738 59.2841C48.9738 57.1524 50.7085 55.4177 52.8402 55.4177C53.5503 55.4177 54.1289 55.9951 54.1289 56.7065V61.8617Z" fill="#6366F1"/>
</svg>
