<svg width="60" height="78" viewBox="0 0 60 78" fill="none" xmlns="http://www.w3.org/2000/svg">
<path d="M56.25 32.5H55V28.75C55 26.6825 53.3175 25 51.25 25C49.1825 25 47.5 26.6825 47.5 28.75V32.73C46.0487 33.2475 45 34.6225 45 36.25V39.1787C45 40.8487 45.6513 42.4188 46.8313 43.5988L47.4113 44.1787L46.4612 49.8775C43.3587 43.0338 37.2337 38.0625 29.775 36.445L29.275 34.4488C32.2337 33.3538 34.4375 30.7075 34.9 27.4988H35C37.7575 27.4988 40 25.2563 40 22.4988C40 21.4788 39.69 20.5325 39.165 19.7412L39.5638 18.1475C39.8538 16.9887 40.0012 15.7975 40.0012 14.605C40 6.55125 33.4487 0 25.3937 0H22.105C14.0513 0 7.5 6.55125 7.5 14.6063C7.5 15.7988 7.64625 16.99 7.9375 18.1488L8.33625 19.7438C7.81 20.5338 7.5 21.4813 7.5 22.5C7.5 25.2575 9.7425 27.5 12.5 27.5H12.6C13.0625 30.7087 15.2662 33.3537 18.225 34.45L17.7312 36.4225C7.56875 38.2938 0 47.2688 0 57.6788V63.75C0 71.3313 6.16875 77.5 13.75 77.5H25C27.48 77.5 29.5275 75.6825 29.9175 73.3125C31.3925 72.7838 32.9312 72.5 34.5062 72.5H40V69.7038L41.7425 71.7938C43.4413 73.8313 45.9362 75 48.5887 75C53.5025 75 57.5 71.0025 57.5 66.0887V44.2675L58.1687 43.5988C59.3487 42.4188 60 40.8487 60 39.1787V36.25C60 34.1825 58.3175 32.5 56.25 32.5V32.5ZM51.25 27.5C51.94 27.5 52.5 28.06 52.5 28.75V32.73C52.0325 32.8963 51.6113 33.15 51.25 33.475C50.8887 33.1488 50.4675 32.8963 50 32.73V28.75C50 28.06 50.56 27.5 51.25 27.5ZM24.8362 67.5C24.3825 66.0525 23.0275 65 21.4313 65C20.0713 65 18.85 65.755 18.24 66.9725L17.9775 67.5H15V55H17.9938C20.475 55 22.8825 55.6762 25 56.9475V67.5H24.8362ZM21.4425 40.2437L18.0338 42.97L16.5475 39.2537C17.2075 39.0712 17.8788 38.9175 18.5663 38.805L21.4425 40.2437ZM23.4437 47.5H24.0575L26.1137 54.6975C24.7837 53.9212 23.3588 53.3487 21.8775 52.9812L23.4437 47.5ZM24.2275 45H23.2725L22.195 42.845L23.75 41.6012L25.305 42.845L24.2275 45ZM26.0575 40.2437L28.9175 38.8137C29.6 38.9512 30.2688 39.1213 30.9263 39.3188L29.465 42.97L26.0575 40.2437ZM32.5 20C32.5 21.3788 31.3788 22.5 30 22.5C28.6212 22.5 27.5 21.3788 27.5 20C27.5 18.6212 28.6212 17.5 30 17.5C31.3788 17.5 32.5 18.6212 32.5 20ZM35 25V20C36.3788 20 37.5 21.1212 37.5 22.5C37.5 23.8788 36.3788 25 35 25ZM22.1062 2.5H25.395C32.0688 2.5 37.5 7.93125 37.5 14.6063C37.5 15.5938 37.3775 16.5825 37.1387 17.5437L37.0388 17.945C36.4138 17.6637 35.7275 17.5 35 17.5H34.9388C34.6325 14.6538 32.4225 12.3237 29.5262 11.9625L28.8662 11.88C26.6612 11.6037 25 9.72125 25 7.5H22.5C22.5 10.98 25.1038 13.93 28.555 14.36L29.215 14.4425C29.8288 14.52 30.385 14.7538 30.8675 15.0863C30.5838 15.0375 30.2975 15 30 15C27.6763 15 25.7362 16.5988 25.1775 18.75H22.3225C21.7637 16.5988 19.8237 15 17.5 15C16.6088 15 15.785 15.2537 15.0588 15.6625C15.3363 13.9162 16.8125 12.575 18.6212 12.5125C19.3612 13.9125 20.4437 15.1312 21.8062 16.04L23.1925 13.96C21.1938 12.6275 20 10.3963 20 7.99375V7.5H17.5V7.99375C17.5 8.7125 17.5912 9.41625 17.7437 10.1025C14.7775 10.5862 12.5 13.1488 12.5 16.25V17.5C11.7725 17.5 11.0862 17.6637 10.4612 17.945L10.3612 17.5437C10.1225 16.5825 10 15.5938 10 14.6063C10 7.93125 15.4312 2.5 22.1062 2.5V2.5ZM17.5 17.5C18.8788 17.5 20 18.6212 20 20C20 21.3788 18.8788 22.5 17.5 22.5C16.1212 22.5 15 21.3788 15 20C15 18.6212 16.1212 17.5 17.5 17.5ZM10 22.5C10 21.1212 11.1212 20 12.5 20V25C11.1212 25 10 23.8788 10 22.5ZM15 26.25V24.305C15.7388 24.735 16.585 25 17.5 25C19.8237 25 21.7637 23.4012 22.3225 21.25H25.1775C25.7362 23.4012 27.6763 25 30 25C30.915 25 31.7612 24.735 32.5 24.305V26.25C32.5 29.6962 29.6962 32.5 26.25 32.5H21.25C17.8038 32.5 15 29.6962 15 26.25V26.25ZM21.25 35H26.25C26.445 35 26.6375 34.9837 26.8288 34.9712L27.2937 36.83L23.75 38.6025L20.2063 36.83L20.6713 34.9712C20.8625 34.9837 21.055 35 21.25 35V35ZM2.5 63.75V57.6788C2.5 49.9 7.27875 43.0213 14.1838 40.075L16.9662 47.03L20.2 44.4438L21.1663 46.375L19.3963 52.5688C18.93 52.5275 18.4638 52.5 17.9938 52.5H12.5V67.27C11.0487 66.7525 10 65.3775 10 63.75V50H7.5V63.75C7.5 67.1962 10.3038 70 13.75 70H17.5V75H13.75C7.54625 75 2.5 69.9537 2.5 63.75V63.75ZM25 75H20V69.045L20.4775 68.09C20.6587 67.7263 21.025 67.5 21.4325 67.5C22.02 67.5 22.5 67.98 22.5 68.5675V70H25C26.3788 70 27.5 71.1212 27.5 72.5C27.5 73.8788 26.3788 75 25 75V75ZM37.5 70H34.5062C32.8512 70 31.23 70.2537 29.6663 70.7475C29.2588 69.665 28.4875 68.7712 27.5 68.195V56.9475C29.6188 55.6762 32.025 55 34.5062 55H37.5V70ZM48.5887 72.5C46.6812 72.5 44.885 71.6587 43.6637 70.1925L40 65.7963V52.5H34.5062C32.4037 52.5 30.3463 52.9125 28.4263 53.695L26.335 46.3737L27.3012 44.4425L30.535 47.0288L33.275 40.18C39.0137 42.6725 43.4225 47.5662 45.2437 53.76L45.6075 54.9963L43.7663 66.045L46.2325 66.455L49.8088 45H55V66.0887C55 69.6237 52.1237 72.5 48.5887 72.5V72.5ZM56.4012 41.8313L55.7325 42.5H49.2675L48.5988 41.8313C47.8913 41.1225 47.5 40.1812 47.5 39.1787V36.25C47.5 35.56 48.06 35 48.75 35C49.44 35 50 35.56 50 36.25C50 38.3175 51.6825 40 53.75 40H57.4113C57.2575 40.6887 56.9112 41.3213 56.4012 41.8313V41.8313ZM57.5 37.5H53.75C53.06 37.5 52.5 36.94 52.5 36.25C52.5 35.56 53.06 35 53.75 35H56.25C56.94 35 57.5 35.56 57.5 36.25V37.5Z" fill="#6366F1"/>
</svg>
